<svg xmlns="http://www.w3.org/2000/svg" width="24.06" height="18.106" viewBox="0 0 24.06 18.106">
  <g id="Group_374" data-name="Group 374" transform="translate(0 -2.569)">
    <g id="Group_298" data-name="Group 298" transform="translate(0 2.569)">
      <circle id="Ellipse_5" data-name="Ellipse 5" cx="2.811" cy="2.811" r="2.811" transform="translate(9.276 12.485)" fill="#becfbd"/>
      <path id="Path_37" data-name="Path 37" d="M18.211,10.294c-.042-.043-.086-.081-.129-.12l-.126-.119A.615.615,0,0,0,17.886,10a9.17,9.17,0,0,0-12.666.3l-.407.408-.563.563a1.765,1.765,0,0,0,2.5,2.5l.971-.971a5.665,5.665,0,0,1,8,0l.7.679A1.751,1.751,0,0,0,19.4,12.226a1.718,1.718,0,0,0-.509-1.232Z" transform="translate(0.593 -1.771)" fill="#becfbd"/>
      <path id="Path_38" data-name="Path 38" d="M23.593,7.618l-.584-.584s0-.006-.008-.007l-.461-.463a1.663,1.663,0,0,0-.262-.21A15.3,15.3,0,0,0,1.608,6.83c-.028.025-.059.043-.087.071L.467,7.956a1.609,1.609,0,0,0,2.277,2.275L3.8,9.179a.137.137,0,0,1,.02-.023,12.08,12.08,0,0,1,16.67-.092l.83.831a1.609,1.609,0,0,0,2.275-2.277Z" transform="translate(0 -2.569)" fill="#becfbd"/>
    </g>
  </g>
</svg>
