<svg xmlns="http://www.w3.org/2000/svg" width="24.941" height="18.106" viewBox="0 0 24.941 18.106">
  <g id="Group_376" data-name="Group 376" transform="translate(0 -70.155)">
    <path id="Path_39" data-name="Path 39" d="M24.21,70.155H.731A.731.731,0,0,0,0,70.886V85.117a.731.731,0,0,0,.731.731H3.81l-.77,1.314A.731.731,0,1,0,4.3,87.9l1.2-2.052H19.388l1.2,2.052a.731.731,0,1,0,1.261-.739l-.77-1.314H24.21a.731.731,0,0,0,.731-.731V70.886A.731.731,0,0,0,24.21,70.155ZM10.536,76.036H9.727v4.822a.731.731,0,0,1-1.461,0V76.036h-.8a.731.731,0,1,1,0-1.461h3.066a.731.731,0,1,1,0,1.461Zm7.532-.49L16.254,81l0,0a.857.857,0,0,1-.8.58h-.006a.857.857,0,0,1-.807-.57l0,0-1.9-5.469a.731.731,0,0,1,1.38-.479L15.43,78.85l1.251-3.765a.731.731,0,0,1,1.387.461Z" transform="translate(0 0)" fill="#becfbd"/>
  </g>
</svg>
