<svg id="Group_276" data-name="Group 276" xmlns="http://www.w3.org/2000/svg" width="29.583" height="29.583" viewBox="0 0 29.583 29.583">
  <path id="Path_27" data-name="Path 27" d="M.92,145.982a14.846,14.846,0,0,0,0,10.29l13.872,1.286,13.872-1.286a14.846,14.846,0,0,0,0-10.29L14.792,144.7Z" transform="translate(0 -136.335)" fill="#f0f0f0"/>
  <path id="Path_28" data-name="Path 28" d="M29.8,0A14.8,14.8,0,0,0,15.924,9.647H43.667A14.8,14.8,0,0,0,29.8,0Z" transform="translate(-15.004)" fill="#d80027"/>
  <path id="Path_29" data-name="Path 29" d="M29.8,354.69a14.8,14.8,0,0,0,13.872-9.647H15.924A14.8,14.8,0,0,0,29.8,354.69Z" transform="translate(-15.004 -325.106)" fill="#6da544"/>
</svg>
