<svg xmlns="http://www.w3.org/2000/svg" width="17.594" height="21.113" viewBox="0 0 17.594 21.113">
  <g id="Group_378" data-name="Group 378" transform="translate(-32)">
    <path id="Path_40" data-name="Path 40" d="M53.08,0a5.724,5.724,0,0,0-5.7,5.34,6.175,6.175,0,0,0-5.035,4.337h11.8a6.175,6.175,0,0,0-5-4.332,3.959,3.959,0,0,1,7.9.373V21.112H58.8V5.718A5.724,5.724,0,0,0,53.08,0Z" transform="translate(-9.204)" fill="#becfbd"/>
    <path id="Path_41" data-name="Path 41" d="M32,96H46.075v1.759H32Z" transform="translate(0 -85.444)" fill="#becfbd"/>
    <circle id="Ellipse_6" data-name="Ellipse 6" cx="1" cy="1" r="1" transform="translate(37.797 18.556)" fill="#becfbd"/>
    <circle id="Ellipse_7" data-name="Ellipse 7" cx="1" cy="1" r="1" transform="translate(37.797 15.556)" fill="#becfbd"/>
    <circle id="Ellipse_8" data-name="Ellipse 8" cx="1" cy="1" r="1" transform="translate(41.797 18.556)" fill="#becfbd"/>
    <circle id="Ellipse_9" data-name="Ellipse 9" cx="1" cy="1" r="1" transform="translate(41.797 15.556)" fill="#becfbd"/>
    <circle id="Ellipse_10" data-name="Ellipse 10" cx="1" cy="1" r="1" transform="translate(34.797 18.556)" fill="#becfbd"/>
    <circle id="Ellipse_11" data-name="Ellipse 11" cx="1" cy="1" r="1" transform="translate(34.797 15.556)" fill="#becfbd"/>
    <ellipse id="Ellipse_12" data-name="Ellipse 12" cx="1" cy="0.5" rx="1" ry="0.5" transform="translate(37.797 13.556)" fill="#becfbd"/>
    <ellipse id="Ellipse_13" data-name="Ellipse 13" cx="1" cy="0.5" rx="1" ry="0.5" transform="translate(41.797 13.556)" fill="#becfbd"/>
    <ellipse id="Ellipse_14" data-name="Ellipse 14" cx="1" cy="0.5" rx="1" ry="0.5" transform="translate(34.797 13.556)" fill="#becfbd"/>
  </g>
</svg>
