<svg xmlns="http://www.w3.org/2000/svg" width="16.354" height="23.921" viewBox="0 0 16.354 23.921">
  <g id="Group_383" data-name="Group 383" transform="translate(-80.984 -0.001)">
    <path id="Path_54" data-name="Path 54" d="M85.408,132.859a2.72,2.72,0,0,1,2.859-.1L90.138,129H81.685a.7.7,0,0,0-.577,1.1l2.657,3.852Z" transform="translate(0 -122.976)" fill="#becfbd"/>
    <path id="Path_55" data-name="Path 55" d="M140.169,243.413h-4.532v-4.734l3.9-5.654-1.625-1.083a1.317,1.317,0,0,0-1.465,0,2.713,2.713,0,0,1-1.693.451L134,233.914a.7.7,0,1,1-1.255-.625l.674-1.353a1.319,1.319,0,0,0-1.455.006l-1.625,1.083,3.9,5.654v4.734H129.7a.7.7,0,1,0,0,1.4h10.465a.7.7,0,1,0,0-1.4Z" transform="translate(-45.776 -220.892)" fill="#becfbd"/>
    <path id="Path_56" data-name="Path 56" d="M275.3,6.028h-3.365l2.5-5.014a.7.7,0,0,0-1.255-.625c-2.581,5.183-2.192,4.4-4.773,9.581a1.331,1.331,0,0,0,.153-.087,2.714,2.714,0,0,1,3.02,0l1.643,1.1,2.657-3.852a.7.7,0,0,0-.577-1.1Z" transform="translate(-178.666)" fill="#becfbd"/>
  </g>
</svg>
