<svg id="Group_348" data-name="Group 348" xmlns="http://www.w3.org/2000/svg" width="48.339" height="36.679" viewBox="0 0 48.339 36.679">
  <path id="Path_66" data-name="Path 66" d="M47.139,79.382h-.685a3.29,3.29,0,0,0-1.892.6V78.425a3.219,3.219,0,0,0-3.215-3.215H35.394a.708.708,0,1,0,0,1.416h5.953a1.8,1.8,0,0,1,1.8,1.8v5.029H17.694V78.425a1.8,1.8,0,0,1,1.8-1.8h12.6a.708.708,0,1,0,0-1.416H11.276a3.38,3.38,0,0,0,.519-2.846.708.708,0,0,0-1.368.367,1.969,1.969,0,0,1-3.8,1.019L5.261,68.668a1.969,1.969,0,0,1,3.8-1.019l.5,1.864a.708.708,0,1,0,1.368-.367l-.5-1.864A3.389,3.389,0,0,0,5.193,65.4v-.344a3.312,3.312,0,0,0-3.308-3.308H1.2a1.2,1.2,0,0,0-1.2,1.2V97.23a1.2,1.2,0,0,0,1.2,1.2H3.993a1.2,1.2,0,0,0,1.2-1.2V90.7h.8a.708.708,0,1,0,0-1.416h-.8V84.871H43.146v4.414H9.3a.708.708,0,0,0,0,1.416H43.146V97.23a1.2,1.2,0,0,0,1.2,1.2h2.793a1.2,1.2,0,0,0,1.2-1.2V80.582a1.2,1.2,0,0,0-1.2-1.2ZM15.748,76.626H16.83a3.2,3.2,0,0,0-.552,1.8v5.029H13.949V78.425A1.8,1.8,0,0,1,15.748,76.626ZM5.254,74.117a3.367,3.367,0,0,0,.66,1.279,3.206,3.206,0,0,0-.721.366V73.887Zm-1.478,22.9H1.416V63.167h.468a1.894,1.894,0,0,1,1.892,1.892ZM5.193,78.425a1.8,1.8,0,0,1,1.8-1.8h6.093a3.2,3.2,0,0,0-.552,1.8v5.029H5.193Zm41.73,18.588h-2.36V82.691A1.894,1.894,0,0,1,46.454,80.8h.468Z" transform="translate(0 -61.751)" fill="#becfbd"/>
</svg>
