<svg xmlns="http://www.w3.org/2000/svg" width="27" height="25.8" viewBox="0 0 27 25.8">
  <g id="Group_266" data-name="Group 266" transform="translate(0 -0.481)">
    <g id="Group_265" data-name="Group 265" transform="translate(0 0.481)">
      <path id="Path_23" data-name="Path 23" d="M2.978,20.947H6.655a.665.665,0,0,0,.652.571h8.359a.663.663,0,0,0,.652-.571h3.677a1.125,1.125,0,0,0,1.125-1.125H1.854A1.125,1.125,0,0,0,2.978,20.947Z" transform="translate(0.457 4.282)" fill="#becfbd"/>
      <path id="Path_24" data-name="Path 24" d="M26,11.947a4.292,4.292,0,0,0-3.126-.675c.025-.606.039-1.225.039-1.869H0C0,15.6.937,20.065,6.868,21.733h9.18a8.507,8.507,0,0,0,4.94-3.24c2.251-.044,5.871-.93,6.007-4.038A2.879,2.879,0,0,0,26,11.947Zm-4.072,4.768a14.3,14.3,0,0,0,.828-3.724,3.114,3.114,0,0,1,2.186.268c.1.08.4.327.365,1.123C25.24,15.992,23.241,16.533,21.932,16.715Z" transform="translate(0 1.716)" fill="#becfbd"/>
      <path id="Path_25" data-name="Path 25" d="M7.66,10.729s4.362-.32,2.363-4c-1.605-2.952-1.239-4.685.815-6.25,0,0-6.727,1.714-2.8,7.017C9.473,9.808,7.66,10.729,7.66,10.729Z" transform="translate(1.676 -0.481)" fill="#becfbd"/>
      <path id="Path_26" data-name="Path 26" d="M9.85,9.5s3.495-.737,1.593-3.547C10.752,4.73,11.7,4.3,11.7,4.3s-2.25.071-1.3,2C11.165,7.853,10.939,8.736,9.85,9.5Z" transform="translate(2.426 0.458)" fill="#becfbd"/>
    </g>
  </g>
</svg>
