<svg xmlns="http://www.w3.org/2000/svg" width="26.465" height="26.48" viewBox="0 0 26.465 26.48">
  <g id="Group_264" data-name="Group 264" transform="translate(-0.153)">
    <g id="Group_259" data-name="Group 259" transform="translate(1.626)">
      <g id="Group_258" data-name="Group 258">
        <path id="Path_19" data-name="Path 19" d="M52.947,22.515,42.563,12.131,30.432,0h-.948L29.29.492a8.7,8.7,0,0,0-.631,3.84A5.424,5.424,0,0,0,30.179,7.8l9.47,9.47L40.9,16.018l8.755,9.79a2.328,2.328,0,0,0,3.293-3.293Z" transform="translate(-28.636)" fill="#becfbd"/>
      </g>
    </g>
    <g id="Group_261" data-name="Group 261" transform="translate(0.153 15.073)">
      <g id="Group_260" data-name="Group 260" transform="translate(0)">
        <path id="Path_20" data-name="Path 20" d="M8.251,291.442.834,298.859a2.328,2.328,0,0,0,3.293,3.293l7.417-7.417Z" transform="translate(-0.153 -291.442)" fill="#becfbd"/>
      </g>
    </g>
    <g id="Group_263" data-name="Group 263" transform="translate(14.335 0.019)">
      <g id="Group_262" data-name="Group 262">
        <path id="Path_21" data-name="Path 21" d="M285.52,4.751l-4.207,4.207-1.1-1.1,4.207-4.207-1.1-1.1-4.207,4.207-1.1-1.1,4.207-4.207-1.1-1.1-5.488,5.488a3.874,3.874,0,0,0-1.129,2.51,2.236,2.236,0,0,1-.159.7l3.565,3.565a2.234,2.234,0,0,1,.7-.159,3.873,3.873,0,0,0,2.51-1.129l5.488-5.488Z" transform="translate(-274.354 -0.361)" fill="#becfbd"/>
      </g>
    </g>
  </g>
</svg>
