<svg xmlns="http://www.w3.org/2000/svg" width="20.537" height="20.538" viewBox="0 0 20.537 20.538">
  <g id="Group_380" data-name="Group 380" transform="translate(-0.006)">
    <g id="Group_305" data-name="Group 305" transform="translate(0.006)">
      <path id="Path_44" data-name="Path 44" d="M15.62,57.752a1.439,1.439,0,0,0-2.175,0c-.509.5-1.017,1.009-1.517,1.521a.3.3,0,0,1-.419.077c-.329-.179-.68-.325-1-.521a15.777,15.777,0,0,1-3.8-3.462,9.011,9.011,0,0,1-1.363-2.184.313.313,0,0,1,.077-.4c.509-.491,1-1,1.5-1.5a1.445,1.445,0,0,0,0-2.227c-.4-.4-.795-.795-1.192-1.2s-.816-.825-1.231-1.231a1.448,1.448,0,0,0-2.175,0c-.513.5-1,1.021-1.526,1.517A2.477,2.477,0,0,0,.021,49.82a7.08,7.08,0,0,0,.547,3.047,18.516,18.516,0,0,0,3.286,5.475,20.338,20.338,0,0,0,6.735,5.269A9.741,9.741,0,0,0,14.32,64.7a2.734,2.734,0,0,0,2.346-.893c.436-.487.927-.932,1.389-1.4a1.454,1.454,0,0,0,.009-2.214Q16.846,58.968,15.62,57.752Z" transform="translate(-0.006 -44.166)" fill="#becfbd"/>
      <path id="Path_45" data-name="Path 45" d="M242.487,102.077l1.577-.269A7.079,7.079,0,0,0,238.076,96l-.222,1.586a5.471,5.471,0,0,1,4.633,4.492Z" transform="translate(-227.689 -91.897)" fill="#becfbd"/>
      <path id="Path_46" data-name="Path 46" d="M249.643,3.325A11.628,11.628,0,0,0,242.976,0l-.222,1.586a10.146,10.146,0,0,1,8.586,8.321l1.577-.269A11.713,11.713,0,0,0,249.643,3.325Z" transform="translate(-232.38)" fill="#becfbd"/>
    </g>
  </g>
</svg>
