<svg xmlns="http://www.w3.org/2000/svg" xmlns:xlink="http://www.w3.org/1999/xlink" width="25.73" height="25.73" viewBox="0 0 25.73 25.73">
  <defs>
    <clipPath id="clip-path">
      <path id="Path_34" data-name="Path 34" d="M0,0H25.73V25.73H0Z" fill="none"/>
    </clipPath>
  </defs>
  <g id="Group_296" data-name="Group 296" clip-path="url(#clip-path)">
    <path id="Path_33" data-name="Path 33" d="M22.37,11.649h-3.4l2.723-2.723a1.068,1.068,0,0,0,0-1.512,1.081,1.081,0,0,0-1.522,0l-4.235,4.235H13.793V9.5L18.028,5.27a1.081,1.081,0,0,0,0-1.522,1.068,1.068,0,0,0-1.512,0L13.793,6.471v-3.4a1.072,1.072,0,0,0-2.144,0v3.4L8.926,3.747a1.068,1.068,0,0,0-1.512,0,1.081,1.081,0,0,0,0,1.522L11.649,9.5v2.144H9.5L5.27,7.414a1.081,1.081,0,0,0-1.522,0,1.068,1.068,0,0,0,0,1.512l2.723,2.723h-3.4a1.072,1.072,0,0,0,0,2.144h3.4L3.747,16.516a1.068,1.068,0,0,0,0,1.512,1.081,1.081,0,0,0,1.522,0L9.5,13.793h2.144v2.144L7.414,20.172a1.081,1.081,0,0,0,0,1.522,1.068,1.068,0,0,0,1.512,0l2.723-2.723v3.4a1.072,1.072,0,0,0,2.144,0v-3.4l2.723,2.723a1.068,1.068,0,0,0,1.512,0,1.081,1.081,0,0,0,0-1.522l-4.235-4.235V13.793h2.144l4.235,4.235a1.081,1.081,0,0,0,1.522,0,1.068,1.068,0,0,0,0-1.512l-2.723-2.723h3.4a1.072,1.072,0,0,0,0-2.144Z" transform="translate(0.144 0.144)" fill="#becfbd"/>
  </g>
</svg>
