<svg xmlns="http://www.w3.org/2000/svg" width="30.819" height="30.819" viewBox="0 0 30.819 30.819">
  <path id="Icon_simple-instagram" data-name="Icon simple-instagram" d="M15.41,0C11.223,0,10.7.019,9.057.092A11.363,11.363,0,0,0,5.316.809a7.546,7.546,0,0,0-2.73,1.777A7.519,7.519,0,0,0,.809,5.316,11.33,11.33,0,0,0,.092,9.057C.015,10.7,0,11.223,0,15.41s.019,4.709.092,6.353A11.37,11.37,0,0,0,.809,25.5a7.557,7.557,0,0,0,1.777,2.73,7.535,7.535,0,0,0,2.73,1.777,11.377,11.377,0,0,0,3.741.717c1.644.077,2.166.092,6.353.092s4.709-.019,6.353-.092A11.4,11.4,0,0,0,25.5,30.01,7.875,7.875,0,0,0,30.01,25.5a11.37,11.37,0,0,0,.717-3.741c.077-1.644.092-2.166.092-6.353S30.8,10.7,30.727,9.057a11.4,11.4,0,0,0-.717-3.741,7.563,7.563,0,0,0-1.777-2.73A7.508,7.508,0,0,0,25.5.809,11.337,11.337,0,0,0,21.762.092C20.119.015,19.6,0,15.41,0Zm0,2.774c4.113,0,4.6.021,6.228.091A8.49,8.49,0,0,1,24.5,3.4a5.071,5.071,0,0,1,2.925,2.924,8.508,8.508,0,0,1,.53,2.86c.073,1.626.09,2.114.09,6.228s-.019,4.6-.1,6.228a8.672,8.672,0,0,1-.541,2.86,4.893,4.893,0,0,1-1.154,1.775,4.808,4.808,0,0,1-1.772,1.151,8.571,8.571,0,0,1-2.87.53c-1.636.073-2.118.09-6.24.09s-4.6-.019-6.24-.1a8.738,8.738,0,0,1-2.871-.541,4.772,4.772,0,0,1-1.771-1.154,4.679,4.679,0,0,1-1.156-1.772,8.745,8.745,0,0,1-.539-2.87c-.058-1.618-.078-2.118-.078-6.22s.021-4.6.078-6.242a8.735,8.735,0,0,1,.539-2.869A4.568,4.568,0,0,1,4.489,4.506,4.558,4.558,0,0,1,6.26,3.353a8.529,8.529,0,0,1,2.852-.541c1.637-.058,2.119-.077,6.24-.077l.058.039Zm0,4.723a7.913,7.913,0,1,0,7.913,7.913A7.912,7.912,0,0,0,15.41,7.5Zm0,13.049a5.137,5.137,0,1,1,5.137-5.137A5.135,5.135,0,0,1,15.41,20.546ZM25.485,7.185a1.849,1.849,0,1,1-1.849-1.848A1.85,1.85,0,0,1,25.485,7.185Z" fill="#324d3e"/>
</svg>
