<svg xmlns="http://www.w3.org/2000/svg" width="49.641" height="36.423" viewBox="0 0 49.641 36.423">
  <path id="Path_67" data-name="Path 67" d="M47.944,22.485h-.211v-1.16a5.2,5.2,0,0,0-3.253-4.8l-.529-1.961a3.4,3.4,0,0,0-.876-1.514V1.7a1.7,1.7,0,0,0-1.7-1.7H36.038a.727.727,0,1,0,0,1.454h5.342a.243.243,0,0,1,.242.242V12.184a3.4,3.4,0,0,0-.962-.139H39.414V7.9A1.727,1.727,0,0,0,37.688,6.18H28.306A1.727,1.727,0,0,0,26.58,7.9v4.14H23.06V11.88a.727.727,0,0,0-1.454,0v.975a.271.271,0,0,1-.271.271H11.953a.271.271,0,0,1-.271-.271V7.9a.271.271,0,0,1,.271-.271h9.382a.271.271,0,0,1,.271.271v.543a.727.727,0,0,0,1.454,0V7.9A1.727,1.727,0,0,0,21.335,6.18H11.953A1.727,1.727,0,0,0,10.227,7.9v4.14H8.981a3.4,3.4,0,0,0-.962.139V1.7a.243.243,0,0,1,.242-.242H32.606a.727.727,0,1,0,0-1.454H8.262a1.7,1.7,0,0,0-1.7,1.7V13.051a3.4,3.4,0,0,0-.876,1.514L5.165,16.5a5.2,5.2,0,0,0-3.258,4.82v1.16H1.7a1.7,1.7,0,0,0-1.7,1.7v3.991a1.7,1.7,0,0,0,1.7,1.7H1.71v4.856a1.7,1.7,0,0,0,1.7,1.7H5.959a1.7,1.7,0,0,0,1.7-1.7v-.8h34.33v.8a1.7,1.7,0,0,0,1.7,1.7h2.552a1.7,1.7,0,0,0,1.7-1.7V29.87h.013a1.7,1.7,0,0,0,1.7-1.7V24.182A1.7,1.7,0,0,0,47.944,22.485ZM28.035,7.9a.271.271,0,0,1,.271-.271h9.382a.271.271,0,0,1,.271.271v4.95a.271.271,0,0,1-.271.271H28.306a.271.271,0,0,1-.271-.271ZM7.093,14.945A1.958,1.958,0,0,1,8.981,13.5h1.373a1.727,1.727,0,0,0,1.6,1.081h9.382a1.727,1.727,0,0,0,1.6-1.081h3.773a1.727,1.727,0,0,0,1.6,1.081h9.382a1.727,1.727,0,0,0,1.6-1.081H40.66a1.958,1.958,0,0,1,1.888,1.445l.325,1.2c-.137-.011-.274-.017-.414-.017H7.1c-.112,0-.223,0-.333.012ZM5.959,34.968H3.407a.242.242,0,0,1-.242-.242V29.87H6.2v4.856A.242.242,0,0,1,5.959,34.968Zm1.7-2.5v-2.6h34.33v2.6Zm38.821,2.253a.242.242,0,0,1-.242.242H43.682a.242.242,0,0,1-.242-.242V29.87h3.037Zm1.71-6.552a.243.243,0,0,1-.242.242H1.7a.243.243,0,0,1-.242-.242V24.182a.243.243,0,0,1,.242-.242H9.822a.727.727,0,1,0,0-1.454H3.362v-1.16A3.746,3.746,0,0,1,7.1,17.583H42.459a3.786,3.786,0,0,1,3.821,3.742v1.16H13.253a.727.727,0,1,0,0,1.454H47.944a.243.243,0,0,1,.242.242Zm0,0" fill="#fff"/>
</svg>
