<svg xmlns="http://www.w3.org/2000/svg" width="53.327" height="28.28" viewBox="0 0 53.327 28.28">
  <path id="Path_72" data-name="Path 72" d="M51.711,15.864h-.054V11.635a2.454,2.454,0,0,0-2.451-2.451h-.889V2.451A2.454,2.454,0,0,0,45.867,0H28.333a2.441,2.441,0,0,0-1.67.659A2.442,2.442,0,0,0,24.994,0H7.46A2.454,2.454,0,0,0,5.01,2.451V9.184H4.121A2.454,2.454,0,0,0,1.67,11.635v4.228H1.616A1.618,1.618,0,0,0,0,17.48v3.339a1.618,1.618,0,0,0,1.616,1.616h1.6l-.708,4.953a.781.781,0,0,0,.773.891h1.67a.781.781,0,0,0,.718-.473l2.3-5.371H45.352l2.3,5.371a.781.781,0,0,0,.718.473h1.67a.782.782,0,0,0,.773-.891l-.708-4.953h1.6a1.618,1.618,0,0,0,1.616-1.616V17.48A1.618,1.618,0,0,0,51.711,15.864Zm-5.575,0,3.959-2.1v2.1ZM50.1,11.635V12L39.44,17.64a6.712,6.712,0,0,1-5.724.271L16.4,10.747H38.352a.781.781,0,1,0,0-1.562H31.619V9.131a1.726,1.726,0,0,1,1.723-1.724h7.514a1.726,1.726,0,0,1,1.724,1.724v.054h-.889a.781.781,0,1,0,0,1.562h7.515A.89.89,0,0,1,50.1,11.635ZM10.746,9.184V9.131A1.726,1.726,0,0,1,12.47,7.407h7.514a1.726,1.726,0,0,1,1.723,1.724v.054ZM28.333,1.562H45.867a.89.89,0,0,1,.889.889V9.184H44.143V9.131a3.289,3.289,0,0,0-3.286-3.286H33.343a3.289,3.289,0,0,0-3.286,3.286v.054H27.445V2.451A.89.89,0,0,1,28.333,1.562ZM6.572,2.451a.89.89,0,0,1,.889-.889H24.994a.89.89,0,0,1,.889.889V9.184H23.27V9.131a3.29,3.29,0,0,0-3.286-3.286H12.47A3.29,3.29,0,0,0,9.184,9.131v.054H6.572ZM4.441,26.717H4.187L4.8,22.436H6.276Zm44.7,0h-.254l-1.835-4.282h1.477Zm2.624-5.9a.054.054,0,0,1-.054.054H1.616a.054.054,0,0,1-.054-.054V17.48a.054.054,0,0,1,.054-.054h19.2a.781.781,0,1,0,0-1.562H3.232V11.635a.89.89,0,0,1,.889-.889h8.194l20.8,8.608a8.27,8.27,0,0,0,7.053-.334l3.013-1.6h8.526a.054.054,0,0,1,.054.054Zm0,0" fill="#fff"/>
</svg>
